<?xml version="1.0" encoding="utf-8"?>
<!-- Generator: Adobe Illustrator 25.0.1, SVG Export Plug-In . SVG Version: 6.00 Build 0)  -->
<svg version="1.1" id="Capa_1" xmlns="http://www.w3.org/2000/svg" xmlns:xlink="http://www.w3.org/1999/xlink" x="0px" y="0px"
	 viewBox="0 0 60 60" style="enable-background:new 0 0 60 60;" xml:space="preserve">
<style type="text/css">
	.st0{fill:#393939;}
</style>
<image style="overflow:visible;" width="60" height="60" xlink:href="sqrt.png"  transform="matrix(1 0 0 1 -0.2995 3.764321e-02)">
</image>
<g>
	<g>
		<path class="st0" d="M13.5,23.3h-0.4c-1,0-1.9-0.2-2.7-0.7c-0.8-0.5-1.5-1.1-2-1.9C7.9,19.9,7.6,19,7.6,18v-0.4
			c0-0.3,0.1-0.5,0.3-0.7s0.4-0.3,0.7-0.3s0.5,0.1,0.7,0.3s0.3,0.4,0.3,0.7V18c0,0.6,0.2,1.1,0.5,1.6c0.3,0.5,0.7,0.9,1.2,1.2
			c0.5,0.3,1.1,0.4,1.7,0.4h0.4c0.6,0,1.2-0.1,1.7-0.4c0.5-0.3,0.9-0.7,1.2-1.2c0.3-0.5,0.5-1,0.5-1.6v-0.4c0-0.6-0.2-1.1-0.5-1.6
			c-0.3-0.5-0.7-0.9-1.2-1.2s-1.1-0.4-1.7-0.4h-0.4c-0.3,0-0.5-0.1-0.7-0.3c-0.2-0.2-0.3-0.4-0.3-0.7s0.1-0.5,0.3-0.7
			c0.2-0.2,0.4-0.3,0.7-0.3h0.4c0.4,0,0.9-0.1,1.3-0.3s0.7-0.5,0.9-0.8s0.4-0.7,0.4-1.1V9.8c0-0.4-0.1-0.8-0.3-1.1
			c-0.2-0.3-0.5-0.6-0.9-0.8S14,7.5,13.6,7.5h-0.3c-0.4,0-0.8,0.1-1.2,0.3s-0.6,0.5-0.9,0.8C11,9,10.9,9.4,10.9,9.8v0.3
			c0,0.3-0.1,0.5-0.3,0.7c-0.2,0.2-0.4,0.3-0.7,0.3c-0.3,0-0.5-0.1-0.7-0.3c-0.2-0.2-0.3-0.4-0.3-0.7V9.8C8.8,9,9,8.3,9.4,7.6
			C9.8,7,10.4,6.4,11,6.1s1.4-0.6,2.2-0.6h0.3c0.8,0,1.6,0.2,2.2,0.6S17,7,17.4,7.6C17.8,8.3,18,9,18,9.8v0.3c0,0.6-0.1,1.1-0.4,1.7
			c-0.3,0.6-0.6,1.1-1.1,1.5c0.7,0.5,1.3,1.1,1.8,1.9c0.4,0.8,0.7,1.6,0.7,2.5V18c0,1-0.2,1.9-0.7,2.6s-1.1,1.4-2,1.9
			S14.5,23.3,13.5,23.3z"/>
	</g>
</g>
</svg>
